<svg width="24" height="24" viewBox="0 0 24 24" fill="none" xmlns="http://www.w3.org/2000/svg">
<path d="M16.5 16C16.5 16.9604 16.8815 17.8815 17.5607 18.5607L18 19L19.5 17.5L19.0607 17.0607C18.3815 16.3815 17.4604 16 16.5 16Z" fill="currentColor"/>
<path d="M18.5 18L16.5 16M16.5 16L6 5.5L4.5 4M16.5 16V16C16.5 16.9604 16.8815 17.8815 17.5607 18.5607L18 19L19.5 17.5L19.0607 17.0607C18.3815 16.3815 17.4604 16 16.5 16V16ZM20 4.49999C13 1.83333 0.0999871 1.19999 4.49999 20L20 4.49999Z" stroke="currentColor"/>
</svg>
