<svg width="24" height="24" viewBox="0 0 24 24" fill="none" xmlns="http://www.w3.org/2000/svg">
<path fill-rule="evenodd" clip-rule="evenodd" d="M14.0458 6.58786C13.8404 6.77768 13.5768 6.865 13.3179 6.85228L10.9048 9.08265L10.8255 9.42844L10.7993 10.0946L10.6941 10.2239C9.75587 11.3774 8.43033 12.4212 7.17658 13.2518C5.9187 14.085 4.70292 14.7233 3.95836 15.0596L3.08582 15.3559L3.38211 14.4362C3.77595 13.7203 4.50782 12.5585 5.43738 11.37C6.36389 10.1854 7.50866 8.94604 8.73239 8.10135L8.86955 8.00667L9.53569 8.03289L9.92048 8.01769L12.3722 5.75166C12.3961 5.51775 12.5021 5.29125 12.6883 5.11912C13.0939 4.74426 13.7266 4.76916 14.1014 5.17474C14.4763 5.58033 14.4514 6.213 14.0458 6.58786ZM9.83983 9.04563L9.8133 9.71941C8.97188 10.7128 7.79159 11.6448 6.62433 12.4181C6.17462 12.716 5.73094 12.9876 5.31515 13.2276C5.58704 12.8319 5.89273 12.411 6.22506 11.9861C7.08766 10.8832 8.10959 9.77985 9.16605 9.01912L9.83983 9.04563ZM13.4 6.29998C13.6762 6.29998 13.9 6.07612 13.9 5.79998C13.9 5.52383 13.6762 5.29998 13.4 5.29998C13.1239 5.29998 12.9 5.52383 12.9 5.79998C12.9 6.07612 13.1239 6.29998 13.4 6.29998Z" fill="currentColor"/>
<path fill-rule="evenodd" clip-rule="evenodd" d="M16.96 8.73438C16.7546 8.9242 16.491 9.01151 16.2321 8.9988L13.819 11.2292L13.7397 11.575L13.7135 12.2411L13.6083 12.3704C12.6701 13.5239 11.3445 14.5677 10.0908 15.3983C8.83289 16.2315 7.61711 16.8698 6.87255 17.2061L6 17.5024L6.29629 16.5827C6.69013 15.8669 7.422 14.705 8.35156 13.5165C9.27807 12.3319 10.4228 11.0926 11.6466 10.2479L11.7837 10.1532L12.4499 10.1794L12.8347 10.1642L15.2864 7.89817C15.3103 7.66426 15.4162 7.43777 15.6025 7.26563C16.0081 6.89077 16.6407 6.91568 17.0156 7.32126C17.3905 7.72684 17.3656 8.35952 16.96 8.73438ZM12.754 11.1921L12.7275 11.8659C11.8861 12.8593 10.7058 13.7914 9.53851 14.5646C9.0888 14.8625 8.64512 15.1341 8.22934 15.3741C8.50122 14.9785 8.80691 14.5575 9.13925 14.1326C10.0018 13.0297 11.0238 11.9264 12.0802 11.1656L12.754 11.1921ZM16.3142 8.44649C16.5904 8.44649 16.8142 8.22263 16.8142 7.94649C16.8142 7.67035 16.5904 7.44649 16.3142 7.44649C16.0381 7.44649 15.8142 7.67035 15.8142 7.94649C15.8142 8.22263 16.0381 8.44649 16.3142 8.44649Z" fill="currentColor"/>
<path fill-rule="evenodd" clip-rule="evenodd" d="M19.96 10.7344C19.7546 10.9242 19.491 11.0115 19.2321 10.9988L16.819 13.2292L16.7397 13.575L16.7135 14.2411L16.6083 14.3704C15.6701 15.5239 14.3445 16.5677 13.0908 17.3983C11.8329 18.2315 10.6171 18.8698 9.87255 19.2061L9 19.5024L9.29629 18.5827C9.69013 17.8669 10.422 16.705 11.3516 15.5165C12.2781 14.3319 13.4228 13.0926 14.6466 12.2479L14.7837 12.1532L15.4499 12.1794L15.8347 12.1642L18.2864 9.89817C18.3103 9.66426 18.4162 9.43777 18.6025 9.26563C19.0081 8.89077 19.6407 8.91568 20.0156 9.32126C20.3905 9.72684 20.3656 10.3595 19.96 10.7344ZM15.754 13.1921L15.7275 13.8659C14.8861 14.8593 13.7058 15.7914 12.5385 16.5646C12.0888 16.8625 11.6451 17.1341 11.2293 17.3741C11.5012 16.9785 11.8069 16.5575 12.1392 16.1326C13.0018 15.0297 14.0238 13.9264 15.0802 13.1656L15.754 13.1921ZM19.3142 10.4465C19.5904 10.4465 19.8142 10.2226 19.8142 9.94649C19.8142 9.67035 19.5904 9.44649 19.3142 9.44649C19.0381 9.44649 18.8142 9.67035 18.8142 9.94649C18.8142 10.2226 19.0381 10.4465 19.3142 10.4465Z" fill="currentColor"/>
</svg>
