<svg width="24" height="24" viewBox="0 0 24 24" fill="none" xmlns="http://www.w3.org/2000/svg">
<path d="M3.10607 21.1061L16.6061 7.60607L16.3939 7.39393L2.89393 20.8939L3.10607 21.1061Z" fill="currentColor"/>
<path fill-rule="evenodd" clip-rule="evenodd" d="M23 2.5C23 3.32843 22.3284 4 21.5 4C21.3869 4 21.2768 3.98749 21.1709 3.96378L21.196 3.98892L18.2916 7.08449L19.8536 8.64645L19.1465 9.35355L18 8.20711L3.78099 22.4261L0.102478 23.8975L1.57388 20.219L15.7929 6L14.6465 4.85355L15.3536 4.14645L17 5.79289L20 2.79289L20.0362 2.82911C20.0125 2.7232 20 2.61306 20 2.5C20 1.67157 20.6716 1 21.5 1C22.3284 1 23 1.67157 23 2.5ZM21.5 2C21.2239 2 21 2.22386 21 2.5C21 2.77614 21.2239 3 21.5 3C21.7761 3 22 2.77614 22 2.5C22 2.22386 21.7761 2 21.5 2ZM17.2929 7.5L16.5 6.70711L2.42613 20.781L1.89753 22.1025L3.21902 21.5739L17.2929 7.5Z" fill="currentColor"/>
</svg>
