<svg width="24" height="24" viewBox="0 0 24 24" fill="none" xmlns="http://www.w3.org/2000/svg">
<circle cx="13.5" cy="6.10001" r="3.5" stroke="black"/>
<path d="M21 19.9C21 20.2758 20.9827 20.6463 20.9492 21.0104C20.9299 21.22 20.7434 21.4 20.4893 21.4H6.51074C6.2566 21.4 6.0701 21.22 6.05079 21.0104C6.01726 20.6463 6 20.2758 6 19.9C6 14.5434 9.45621 10.4 13.5 10.4C17.5438 10.4 21 14.5434 21 19.9Z" stroke="black"/>
<path fill-rule="evenodd" clip-rule="evenodd" d="M3.67917 6.15834C3.02793 6.15834 2.5 5.63041 2.5 4.97917C2.5 4.32793 3.02793 3.8 3.67917 3.8C4.3304 3.8 4.85833 4.32793 4.85833 4.97917C4.85833 5.06805 4.8485 5.15463 4.82986 5.23789L4.85833 5.20942L7.21667 7.56775L8.51096 6.27346L9.06682 6.82932L8.16559 7.73056L10.8131 10.378C10.5628 10.4895 10.3184 10.6162 10.0803 10.757L7.60972 8.28642L6.98642 8.90972L9.33622 11.2595C9.12882 11.4179 8.92763 11.5877 8.73322 11.7683L6.43056 9.46559L5.52932 10.3668L4.97346 9.81096L6.20133 8.58309L3.91813 6.14962L3.93789 6.12986C3.85463 6.1485 3.76805 6.15834 3.67917 6.15834ZM4.07222 4.97917C4.07222 4.76209 3.89625 4.58611 3.67917 4.58611C3.46209 4.58611 3.28611 4.76209 3.28611 4.97917C3.28611 5.19625 3.46209 5.37223 3.67917 5.37223C3.89625 5.37223 4.07222 5.19625 4.07222 4.97917Z" fill="black"/>
<path d="M20.4999 21.7999C20.4998 21.7999 20.4999 21.7999 20.4999 21.7999Z" fill="black"/>
<path d="M9.79895 10.9322C9.73206 10.9759 9.66573 11.0207 9.59997 11.0667L7.52635 8.9931L7.69311 8.82634L9.79895 10.9322Z" fill="black"/>
</svg>
